<svg width="128" height="128" viewBox="0 0 128 128" fill="none" xmlns="http://www.w3.org/2000/svg">
<g id="map-icon">
<path id="map-area" d="M8.07527 106.59L24.5753 76.5904C25.454 74.9927 27.1329 74 28.9564 74H99.0436C100.867 74 102.546 74.9927 103.425 76.5904L119.925 106.59C121.757 109.923 119.347 114 115.544 114H12.4564C8.65334 114 6.24253 109.923 8.07527 106.59Z" fill="#21AC69"/>
<g id="drop" filter="url(#filter0_b)">
<path d="M63.9738 14C82.6245 14 98 28.8716 98 47.271C98 56.5428 94.628 65.1505 89.078 72.4463C82.9552 80.4941 75.4086 87.5059 66.9142 93.0097C64.97 94.2817 63.2155 94.3777 61.0818 93.0097C52.5389 87.5059 44.9923 80.4941 38.922 72.4463C33.3679 65.1505 30 56.5428 30 47.271C30 28.8716 45.3755 14 63.9738 14ZM63.9738 37.1073C57.8066 37.1073 52.7769 42.1912 52.7769 48.307C52.7769 54.4708 57.8066 59.3187 63.9738 59.3187C70.145 59.3187 75.2231 54.4708 75.2231 48.307C75.2231 42.1912 70.145 37.1073 63.9738 37.1073Z" fill="white" fill-opacity="0.2"/>
<path d="M63.9738 14C82.6245 14 98 28.8716 98 47.271C98 56.5428 94.628 65.1505 89.078 72.4463C82.9552 80.4941 75.4086 87.5059 66.9142 93.0097C64.97 94.2817 63.2155 94.3777 61.0818 93.0097C52.5389 87.5059 44.9923 80.4941 38.922 72.4463C33.3679 65.1505 30 56.5428 30 47.271C30 28.8716 45.3755 14 63.9738 14ZM63.9738 37.1073C57.8066 37.1073 52.7769 42.1912 52.7769 48.307C52.7769 54.4708 57.8066 59.3187 63.9738 59.3187C70.145 59.3187 75.2231 54.4708 75.2231 48.307C75.2231 42.1912 70.145 37.1073 63.9738 37.1073Z" fill="#21AC69" fill-opacity="0.2"/>
</g>
</g>
<defs>
<filter id="filter0_b" x="25" y="9" width="78" height="90" filterUnits="userSpaceOnUse" color-interpolation-filters="sRGB">
<feFlood flood-opacity="0" result="BackgroundImageFix"/>
<feGaussianBlur in="BackgroundImage" stdDeviation="2.5"/>
<feComposite in2="SourceAlpha" operator="in" result="effect1_backgroundBlur"/>
<feBlend mode="normal" in="SourceGraphic" in2="effect1_backgroundBlur" result="shape"/>
</filter>
</defs>
</svg>
